PathFileType	4	(X/Y/Z) shrug_2kg_1.trc																										
DataRate	CameraRate	NumFrames	NumMarkers	Units	OrigDataRate	OrigDataStartFrame	OrigNumFrames																					
100	100	24	9	mm	100	372	433																					
Frame#	Time	gu			centelbow			EpL			centpxt8			centijc7			ij			ts			aa			ai		
		X1	Y1	Z1	X2	Y2	Z2	X3	Y3	Z3	X4	Y4	Z4	X5	Y5	Z5	X6	Y6	Z6	X7	Y7	Z7	X8	Y8	Z8	X9	Y9	Z9
371	3.71	-93.496	-12.039	162.721	-139.073	-254.315	177.204	-124.514	-251.273	205.808	-46.816	-153.158	-8.669	-46.816	31.938	-8.669	0	0	0	-138.084	35.532	46.796	-118.247	27.034	164.095	-165.445	-74.619	48.742
372	3.72	-93.433	-12.312	162.502	-138.917	-254.604	177.006	-124.325	-251.562	205.593	-46.816	-153.158	-8.669	-46.816	31.938	-8.669	0	0	0	-138.054	35.55	46.712	-118.151	27.058	164	-165.395	-74.605	48.676
373	3.73	-93.391	-12.67	162.292	-138.809	-254.97	176.857	-124.183	-251.924	205.426	-46.816	-153.158	-8.669	-46.816	31.938	-8.669	0	0	0	-138.035	35.466	46.665	-118.072	26.991	163.944	-165.373	-74.689	48.659
374	3.74	-93.279	-12.842	162.348	-138.601	-255.153	177.032	-123.949	-252.093	205.586	-46.816	-153.158	-8.669	-46.816	31.938	-8.669	0	0	0	-138.072	35.288	46.679	-118.045	26.838	163.949	-165.419	-74.865	48.713
375	3.75	-93.106	-12.773	162.613	-138.29	-255.102	177.431	-123.619	-252.023	205.974	-46.816	-153.158	-8.669	-46.816	31.938	-8.669	0	0	0	-138.066	35.191	46.804	-117.986	26.767	164.067	-165.413	-74.961	48.874
376	3.76	-92.987	-12.625	162.806	-138.024	-254.975	177.721	-123.333	-251.88	206.252	-46.816	-153.158	-8.669	-46.816	31.938	-8.669	0	0	0	-137.968	35.292	47	-117.843	26.897	164.257	-165.287	-74.866	49.102
377	3.77	-93.034	-12.522	162.785	-137.948	-254.892	177.757	-123.228	-251.789	206.273	-46.816	-153.158	-8.669	-46.816	31.938	-8.669	0	0	0	-137.916	35.491	47.098	-117.728	27.124	164.347	-165.195	-74.677	49.235
378	3.78	-93.177	-12.397	162.585	-137.986	-254.782	177.608	-123.232	-251.675	206.105	-46.816	-153.158	-8.669	-46.816	31.938	-8.669	0	0	0	-137.983	35.624	46.971	-117.71	27.28	164.206	-165.243	-74.547	49.146
379	3.79	-93.171	-12.092	162.347	-137.859	-254.495	177.442	-123.072	-251.38	205.922	-46.816	-153.158	-8.669	-46.816	31.938	-8.669	0	0	0	-138.036	35.67	46.707	-117.683	27.342	163.929	-165.309	-74.498	48.918
380	3.8	-92.948	-11.651	162.288	-137.488	-254.077	177.459	-122.679	-250.948	205.926	-46.816	-153.158	-8.669	-46.816	31.938	-8.669	0	0	0	-137.958	35.707	46.547	-117.562	27.391	163.763	-165.256	-74.454	48.785
381	3.81	-92.707	-11.393	162.41	-137.141	-253.836	177.628	-122.322	-250.698	206.088	-46.816	-153.158	-8.669	-46.816	31.938	-8.669	0	0	0	-137.814	35.733	46.584	-117.411	27.425	163.8	-165.131	-74.423	48.835
382	3.82	-92.57	-11.483	162.498	-136.998	-253.926	177.726	-122.168	-250.789	206.181	-46.816	-153.158	-8.669	-46.816	31.938	-8.669	0	0	0	-137.713	35.683	46.68	-117.308	27.382	163.896	-165.037	-74.471	48.94
383	3.83	-92.501	-11.672	162.465	-136.964	-254.108	177.696	-122.119	-250.976	206.144	-46.816	-153.158	-8.669	-46.816	31.938	-8.669	0	0	0	-137.653	35.6	46.732	-117.233	27.311	163.946	-164.97	-74.555	49.004
384	3.84	-92.495	-11.696	162.382	-136.956	-254.132	177.633	-122.098	-251	206.074	-46.816	-153.158	-8.669	-46.816	31.938	-8.669	0	0	0	-137.612	35.606	46.799	-117.178	27.331	164.011	-164.914	-74.553	49.085
385	3.85	-92.543	-11.638	162.282	-136.978	-254.077	177.555	-122.106	-250.944	205.989	-46.816	-153.158	-8.669	-46.816	31.938	-8.669	0	0	0	-137.631	35.749	46.927	-117.185	27.486	164.138	-164.909	-74.416	49.223
386	3.86	-92.543	-11.657	162.192	-136.962	-254.099	177.465	-122.072	-250.969	205.889	-46.816	-153.158	-8.669	-46.816	31.938	-8.669	0	0	0	-137.712	35.945	47.028	-117.236	27.689	164.234	-164.96	-74.227	49.331
387	3.87	-92.423	-11.707	162.219	-136.817	-254.154	177.48	-121.91	-251.028	205.895	-46.816	-153.158	-8.669	-46.816	31.938	-8.669	0	0	0	-137.769	36.031	47.065	-117.25	27.772	164.263	-164.997	-74.146	49.372
388	3.88	-92.247	-11.73	162.379	-136.616	-254.182	177.639	-121.703	-251.055	206.051	-46.816	-153.158	-8.669	-46.816	31.938	-8.669	0	0	0	-137.734	35.914	47.103	-117.192	27.648	164.297	-164.971	-74.261	49.41
389	3.89	-92.197	-11.74	162.466	-136.555	-254.192	177.746	-121.64	-251.063	206.157	-46.816	-153.158	-8.669	-46.816	31.938	-8.669	0	0	0	-137.658	35.704	47.112	-117.111	27.431	164.305	-164.928	-74.463	49.421
390	3.9	-92.405	-11.669	162.422	-136.72	-254.128	177.728	-121.795	-250.995	206.134	-46.816	-153.158	-8.669	-46.816	31.938	-8.669	0	0	0	-137.636	35.602	47.055	-117.066	27.328	164.244	-164.922	-74.56	49.371
391	3.91	-92.725	-11.488	162.52	-136.952	-253.962	177.84	-122.015	-250.826	206.239	-46.816	-153.158	-8.669	-46.816	31.938	-8.669	0	0	0	-137.646	35.65	47.082	-117.044	27.381	164.265	-164.924	-74.514	49.408
392	3.92	-92.873	-11.383	162.84	-137.039	-253.869	178.152	-122.096	-250.731	206.547	-46.816	-153.158	-8.669	-46.816	31.938	-8.669	0	0	0	-137.6	35.692	47.253	-116.982	27.426	164.434	-164.877	-74.472	49.587
393	3.93	-92.803	-11.49	163.055	-136.98	-253.974	178.353	-122.028	-250.84	206.743	-46.816	-153.158	-8.669	-46.816	31.938	-8.669	0	0	0	-137.499	35.641	47.338	-116.867	27.375	164.517	-164.796	-74.518	49.679
394	3.94	-92.633	-11.67	162.958	-136.84	-254.149	178.248	-121.87	-251.022	206.63	-46.816	-153.158	-8.669	-46.816	31.938	-8.669	0	0	0	-137.425	35.616	47.164	-116.75	27.36	164.335	-164.736	-74.539	49.526
